<svg width="163" height="57" viewBox="0 0 163 57" fill="none" xmlns="http://www.w3.org/2000/svg">
<g clip-path="url(#clip0_1273_3441)">
<path d="M35.4199 6.09766C35.3809 6.3125 35.293 6.48828 35.1562 6.625C35.0391 6.76172 34.9121 6.89844 34.7754 7.03516C34.6387 7.17188 34.502 7.30859 34.3652 7.44531C34.248 7.58203 34.1797 7.75781 34.1602 7.97266C34.1016 8.42187 33.8672 8.79297 33.457 9.08594C33.0469 9.35937 32.5684 9.49609 32.0215 9.49609C31.5527 9.49609 30.7715 9.4668 29.6777 9.4082C28.584 9.34961 27.334 9.32031 25.9277 9.32031C24.3652 9.32031 22.7637 9.37891 21.123 9.49609C19.4824 9.59375 17.8809 9.76953 16.3184 10.0234C14.7559 10.2773 13.2812 10.6094 11.8945 11.0195C10.5078 11.4297 9.29688 11.9375 8.26172 12.543C7.22656 13.1484 6.40625 13.8613 5.80078 14.6816C5.19531 15.4824 4.89258 16.4102 4.89258 17.4648C4.89258 18.4219 5.05859 19.3594 5.39062 20.2773C5.74219 21.1758 6.14258 22.0059 6.5918 22.7676C7.06055 23.5098 7.5293 24.1641 7.99805 24.7305C8.48633 25.2969 8.86719 25.707 9.14062 25.9609C9.33594 26.1367 9.43359 26.3223 9.43359 26.5176C9.43359 26.9082 8.93555 27.1035 7.93945 27.1035C7.68555 27.1035 7.32422 27.0547 6.85547 26.957C6.40625 26.8594 5.91797 26.6934 5.39062 26.459C4.86328 26.2246 4.31641 25.9023 3.75 25.4922C3.20312 25.082 2.70508 24.5645 2.25586 23.9395C1.80664 23.3145 1.43555 22.5723 1.14258 21.7129C0.869141 20.8535 0.732422 19.8379 0.732422 18.666C0.732422 16.9863 1.15234 15.3652 1.99219 13.8027C2.85156 12.2207 4.00391 10.8047 5.44922 9.55469C6.91406 8.28516 8.62305 7.23047 10.5762 6.39062C12.5293 5.53125 14.6094 4.96484 16.8164 4.69141C17.8516 4.51562 18.9062 4.36914 19.9805 4.25195C21.0742 4.13477 22.1484 4.03711 23.2031 3.95898C24.2578 3.88086 25.2734 3.82227 26.25 3.7832C27.2461 3.74414 28.1641 3.72461 29.0039 3.72461C30.5664 3.72461 31.7969 3.7832 32.6953 3.90039C33.5938 3.99805 34.2578 4.125 34.6875 4.28125C35.1367 4.4375 35.4102 4.61328 35.5078 4.80859C35.625 4.98438 35.6836 5.15039 35.6836 5.30664C35.6836 5.42383 35.6445 5.54102 35.5664 5.6582C35.5078 5.77539 35.459 5.92188 35.4199 6.09766ZM22.5 11.1953C22.5 11.332 22.4805 11.8984 22.4414 12.8945C22.4023 13.8906 22.3438 15.1602 22.2656 16.7031C22.207 18.2461 22.1289 19.9941 22.0312 21.9473C21.9531 23.9004 21.8652 25.9121 21.7676 27.9824C21.6895 30.0332 21.6016 32.0645 21.5039 34.0762C21.4258 36.0879 21.3477 37.9336 21.2695 39.6133C21.2109 41.293 21.1621 42.7285 21.123 43.9199C21.084 45.0918 21.0645 45.873 21.0645 46.2637C21.0645 46.4785 21.0352 46.6934 20.9766 46.9082C20.9375 47.1426 20.8496 47.3574 20.7129 47.5527C20.5762 47.7676 20.3809 47.9531 20.127 48.1094C19.8926 48.2656 19.5703 48.3828 19.1602 48.4609C18.8086 48.5195 18.4863 48.6172 18.1934 48.7539C17.9199 48.9102 17.666 49.0664 17.4316 49.2227C17.2168 49.3789 17.0215 49.5156 16.8457 49.6328C16.6699 49.75 16.5039 49.8086 16.3477 49.8086C16.25 49.8086 16.1816 49.7598 16.1426 49.6621C16.1035 49.584 16.0742 49.4766 16.0547 49.3398C16.0352 49.2227 16.0254 49.0957 16.0254 48.959C16.0254 48.8418 16.0254 48.7344 16.0254 48.6367C16.0449 47.4258 16.1035 45.3945 16.2012 42.543C16.2402 41.332 16.2891 39.8867 16.3477 38.207C16.4258 36.5078 16.5137 34.5254 16.6113 32.2598C16.7285 29.9746 16.8555 27.3867 16.9922 24.4961C17.1289 21.5859 17.2852 18.3145 17.4609 14.6816C17.5 13.8027 17.6562 13.0703 17.9297 12.4844C18.2031 11.8984 18.6914 11.5273 19.3945 11.3711C19.7461 11.293 20.0586 11.166 20.332 10.9902C20.625 10.7949 20.8887 10.5996 21.123 10.4043C21.3574 10.209 21.5625 10.0332 21.7383 9.87695C21.9141 9.7207 22.0605 9.64258 22.1777 9.64258C22.3535 9.64258 22.4512 9.79883 22.4707 10.1113C22.4902 10.4043 22.5 10.7656 22.5 11.1953ZM41.8652 35.8047C41.416 37.3281 40.957 38.7344 40.4883 40.0234C40.0195 41.3125 39.5215 42.4258 38.9941 43.3633C38.4668 44.3008 37.8809 45.0332 37.2363 45.5605C36.6113 46.0879 35.8984 46.3516 35.0977 46.3516C34.1211 46.3516 33.3301 45.8633 32.7246 44.8867C32.1387 43.8906 31.8457 42.582 31.8457 40.9609C31.8457 40.2578 31.875 39.5938 31.9336 38.9688C32.0117 38.3438 32.0898 37.7383 32.168 37.1523C32.2656 36.5664 32.3438 36 32.4023 35.4531C32.4805 34.9062 32.5195 34.3691 32.5195 33.8418C32.5195 33.2754 32.4512 32.9043 32.3145 32.7285C32.1777 32.5527 32.002 32.4648 31.7871 32.4648C31.748 32.4648 31.709 32.4746 31.6699 32.4941C31.6309 32.4941 31.5527 32.5039 31.4355 32.5234C31.3379 32.5234 31.1816 32.543 30.9668 32.582C30.7715 32.6016 30.498 32.6309 30.1465 32.6699C29.9316 33.1387 29.7559 33.5391 29.6191 33.8711C29.4824 34.1836 29.3652 34.457 29.2676 34.6914C29.1699 34.9258 29.082 35.1309 29.0039 35.3066C28.9453 35.4629 28.8867 35.6289 28.8281 35.8047C28.6719 36.1758 28.5352 36.4102 28.418 36.5078C28.3008 36.5859 28.1641 36.625 28.0078 36.625C27.8906 36.625 27.793 36.5762 27.7148 36.4785C27.6172 36.3809 27.5684 36.2441 27.5684 36.0684C27.5684 35.9512 27.5977 35.8145 27.6562 35.6582C27.7148 35.4824 27.7832 35.2676 27.8613 35.0137C27.959 34.7402 28.0566 34.3984 28.1543 33.9883C28.2715 33.5781 28.3887 33.0703 28.5059 32.4648C28.1152 32.2891 27.7832 31.8789 27.5098 31.2344C27.2168 30.5703 27.0703 29.7988 27.0703 28.9199C27.0703 28.1973 27.1973 27.4648 27.4512 26.7227C27.6855 25.9805 27.9785 25.3066 28.3301 24.7012C28.7012 24.0762 29.0918 23.5684 29.502 23.1777C29.9316 22.7871 30.3125 22.5918 30.6445 22.5918C31.0742 22.5918 31.4355 22.8555 31.7285 23.3828C32.041 23.8906 32.1973 24.4766 32.1973 25.1406C32.1973 25.4922 32.1582 25.8535 32.0801 26.2246C32.002 26.5762 31.9141 26.9082 31.8164 27.2207C31.7383 27.5137 31.6602 27.7871 31.582 28.041C31.5039 28.2754 31.4648 28.4609 31.4648 28.5977C31.4648 28.7734 31.5332 28.8613 31.6699 28.8613C31.7676 28.8613 31.9434 28.8125 32.1973 28.7148L33.6328 28.0703C34.1602 27.8555 34.6094 27.748 34.9805 27.748C35.6055 27.748 36.0156 27.9434 36.2109 28.334C36.4258 28.7246 36.5332 29.3008 36.5332 30.0625C36.5332 30.3945 36.4941 30.9805 36.416 31.8203C36.3379 32.6406 36.25 33.5586 36.1523 34.5742C36.0742 35.5703 35.9961 36.5664 35.918 37.5625C35.8594 38.5586 35.8301 39.3691 35.8301 39.9941C35.8301 40.6777 35.8984 41.1855 36.0352 41.5176C36.1914 41.8301 36.5137 41.9863 37.002 41.9863C37.3535 41.9863 37.6953 41.7812 38.0273 41.3711C38.3789 40.9609 38.7109 40.4434 39.0234 39.8184C39.3359 39.1934 39.6289 38.5098 39.9023 37.7676C40.1953 37.0254 40.459 36.3125 40.6934 35.6289C40.8691 35.1406 41.123 34.8965 41.4551 34.8965C41.7676 34.8965 41.9238 35.0723 41.9238 35.4238C41.9238 35.4824 41.9141 35.541 41.8945 35.5996C41.8945 35.6582 41.8848 35.7266 41.8652 35.8047ZM55.2832 34.8965C55.4004 34.8965 55.498 34.9355 55.5762 35.0137C55.6738 35.0918 55.7227 35.209 55.7227 35.3652C55.7227 35.5215 55.6934 35.668 55.6348 35.8047C55.3418 36.625 55.0195 37.3965 54.668 38.1191C54.3359 38.8418 54.0234 39.4863 53.7305 40.0527C53.3789 40.6973 53.0371 41.3027 52.7051 41.8691C52.2949 42.5137 51.8359 43.1289 51.3281 43.7148C50.8398 44.2812 50.3027 44.7891 49.7168 45.2383C49.1309 45.668 48.4961 46.0098 47.8125 46.2637C47.1289 46.5176 46.4062 46.6445 45.6445 46.6445C45.0781 46.6445 44.4531 46.5469 43.7695 46.3516C43.1055 46.1562 42.4805 45.7949 41.8945 45.2676C41.3281 44.7402 40.8594 44.0176 40.4883 43.0996C40.0977 42.1816 39.9023 41 39.9023 39.5547C39.9023 38.8906 39.9707 38.2168 40.1074 37.5332C40.2246 36.8496 40.4004 36.1953 40.6348 35.5703C40.8496 34.9453 41.0938 34.3594 41.3672 33.8125C41.6602 33.2656 41.9531 32.7871 42.2461 32.377C42.7539 31.6738 43.291 31.0195 43.8574 30.4141C44.4238 29.7891 44.9902 29.252 45.5566 28.8027C46.1426 28.334 46.709 27.9727 47.2559 27.7188C47.8027 27.4648 48.3105 27.3379 48.7793 27.3379C49.5215 27.3379 50.166 27.6211 50.7129 28.1875C51.2793 28.7539 51.5625 29.5645 51.5625 30.6191C51.5625 31.5371 51.3281 32.4941 50.8594 33.4902C50.3906 34.4668 49.8047 35.4238 49.1016 36.3613C48.3984 37.2988 47.6465 38.168 46.8457 38.9688C46.0449 39.7695 45.3125 40.4336 44.6484 40.9609C45 41.8398 45.4492 42.4844 45.9961 42.8945C46.543 43.3047 47.0996 43.5098 47.666 43.5098C48.5449 43.5098 49.3262 43.2266 50.0098 42.6602C50.7129 42.0938 51.3379 41.4004 51.8848 40.5801C52.4512 39.7598 52.9395 38.9004 53.3496 38.002C53.7793 37.1035 54.1602 36.3125 54.4922 35.6289C54.6094 35.3945 54.7266 35.2188 54.8438 35.1016C54.9609 34.9648 55.1074 34.8965 55.2832 34.8965ZM43.8867 36.3027C43.8867 37.4551 43.9746 38.4707 44.1504 39.3496C44.541 38.959 44.9316 38.5195 45.3223 38.0312C45.7324 37.5234 46.0938 37.0059 46.4062 36.4785C46.7383 35.9512 47.002 35.4141 47.1973 34.8672C47.4121 34.3203 47.5195 33.793 47.5195 33.2852C47.5195 32.5039 47.3535 31.8984 47.0215 31.4688C46.6895 31.0391 46.3574 30.8242 46.0254 30.8242C45.8301 30.8242 45.6055 30.9512 45.3516 31.2051C45.1172 31.4395 44.8828 31.791 44.6484 32.2598C44.4336 32.7285 44.248 33.3047 44.0918 33.9883C43.9551 34.6523 43.8867 35.4238 43.8867 36.3027ZM72.5977 35.8047C72.207 36.9375 71.6211 37.8262 70.8398 38.4707C70.0586 39.0957 69.1699 39.4082 68.1738 39.4082C67.666 39.4082 67.1777 39.3398 66.709 39.2031C66.2207 40.2969 65.6543 41.293 65.0098 42.1914C64.3652 43.0898 63.6914 43.8711 62.9883 44.5352C62.3047 45.1797 61.6211 45.6777 60.9375 46.0293C60.2539 46.4004 59.6191 46.5859 59.0332 46.5859C58.7598 46.5859 58.5352 46.5078 58.3594 46.3516C58.1836 46.2148 57.9883 46 57.7734 45.707C57.5391 45.3555 57.2461 44.8574 56.8945 44.2129C56.543 43.5684 56.2012 42.7676 55.8691 41.8105C55.5566 40.834 55.2832 39.6914 55.0488 38.3828C54.834 37.0547 54.7266 35.541 54.7266 33.8418C54.7266 33.041 54.7656 32.377 54.8438 31.8496C54.9414 31.3027 55.0488 30.8535 55.166 30.502C55.2832 30.1504 55.4102 29.877 55.5469 29.6816C55.6836 29.4668 55.8105 29.3008 55.9277 29.1836C56.0449 29.0664 56.1523 28.9688 56.25 28.8906C56.3477 28.793 56.4355 28.7441 56.5137 28.7441C56.6309 28.7441 56.7383 28.8027 56.8359 28.9199C56.9336 29.0176 57.0312 29.0664 57.1289 29.0664C57.207 29.0664 57.3242 29.0176 57.4805 28.9199C57.6367 28.8223 57.793 28.7148 57.9492 28.5977C58.125 28.4805 58.291 28.373 58.4473 28.2754C58.623 28.1777 58.7598 28.1289 58.8574 28.1289C58.9551 28.1289 59.043 28.1875 59.1211 28.3047C59.2188 28.4023 59.2676 28.5879 59.2676 28.8613C59.2676 29.1348 59.248 29.3887 59.209 29.623C59.1699 29.8379 59.1211 30.1113 59.0625 30.4434C59.0234 30.7559 58.9844 31.1465 58.9453 31.6152C58.9062 32.084 58.8867 32.6895 58.8867 33.4316C58.8867 35.6191 59.1113 37.6602 59.5605 39.5547C60.0098 41.4492 60.6348 43.002 61.4355 44.2129C61.6309 43.9395 61.8457 43.6172 62.0801 43.2461C62.334 42.8555 62.5781 42.3965 62.8125 41.8691C63.0664 41.3418 63.291 40.7266 63.4863 40.0234C63.7012 39.3008 63.8867 38.4707 64.043 37.5332C63.6914 37.1621 63.3398 36.7324 62.9883 36.2441C62.6562 35.7363 62.3438 35.1699 62.0508 34.5449C61.7969 34.0176 61.6113 33.4805 61.4941 32.9336C61.377 32.3672 61.3184 31.8301 61.3184 31.3223C61.3184 30.7168 61.3965 30.1406 61.5527 29.5938C61.7285 29.0469 61.9531 28.5781 62.2266 28.1875C62.5195 27.7773 62.8613 27.4551 63.252 27.2207C63.6426 26.9863 64.0625 26.8691 64.5117 26.8691C65.5859 26.8691 66.4746 27.3574 67.1777 28.334C67.9004 29.291 68.2617 30.6387 68.2617 32.377C68.2617 33.3535 68.1641 34.3105 67.9688 35.248C67.793 36.166 67.5488 37.0645 67.2363 37.9434C67.5879 38.041 67.9199 38.0898 68.2324 38.0898C68.9355 38.0898 69.5703 37.8848 70.1367 37.4746C70.7031 37.0645 71.1426 36.4492 71.4551 35.6289C71.6309 35.1406 71.875 34.8965 72.1875 34.8965C72.3047 34.8965 72.4121 34.9355 72.5098 35.0137C72.627 35.0918 72.6855 35.209 72.6855 35.3652C72.6855 35.4824 72.6562 35.6289 72.5977 35.8047ZM62.8711 31.3516C62.8711 31.9961 62.9883 32.6895 63.2227 33.4316C63.4766 34.1543 63.8281 34.8379 64.2773 35.4824C64.3164 35.0918 64.3457 34.6816 64.3652 34.252C64.3848 33.8027 64.3945 33.334 64.3945 32.8457C64.3945 31.8691 64.3359 31.0586 64.2188 30.4141C64.1016 29.75 63.8867 29.4277 63.5742 29.4473C63.418 29.4473 63.291 29.5156 63.1934 29.6523C63.0957 29.7695 63.0176 29.9258 62.959 30.1211C62.9199 30.3164 62.8906 30.5215 62.8711 30.7363C62.8711 30.9512 62.8711 31.1562 62.8711 31.3516ZM77.8418 43.9199C78.3105 43.9199 78.7207 43.7637 79.0723 43.4512C79.4238 43.1387 79.7168 42.7285 79.9512 42.2207C80.2051 41.7129 80.4102 41.127 80.5664 40.4629C80.7227 39.7793 80.8398 39.0762 80.918 38.3535C80.3516 37.9629 79.7949 37.4551 79.248 36.8301C78.7207 36.2051 78.2422 35.4434 77.8125 34.5449C77.5586 34.0176 77.373 33.4805 77.2559 32.9336C77.1387 32.3672 77.0801 31.8301 77.0801 31.3223C77.0801 30.6777 77.168 30.0723 77.3438 29.5059C77.5195 28.9395 77.7734 28.4512 78.1055 28.041C78.457 27.6309 78.8867 27.3086 79.3945 27.0742C79.9023 26.8203 80.4883 26.6934 81.1523 26.6934C81.9922 26.6934 82.6758 26.8984 83.2031 27.3086C83.75 27.6992 84.1797 28.207 84.4922 28.832C84.8047 29.4375 85.0195 30.1016 85.1367 30.8242C85.2734 31.5469 85.3418 32.2207 85.3418 32.8457C85.3418 33.666 85.2832 34.5059 85.166 35.3652C85.0684 36.2246 84.9023 37.0938 84.668 37.9727C85.3906 37.9141 86.0352 37.7188 86.6016 37.3867C87.168 37.0352 87.6465 36.4492 88.0371 35.6289C88.2715 35.1406 88.5156 34.8965 88.7695 34.8965C88.9062 34.8965 89.0234 34.9355 89.1211 35.0137C89.2383 35.0918 89.2969 35.2188 89.2969 35.3945C89.2969 35.5312 89.2676 35.668 89.209 35.8047C88.8184 36.918 88.1641 37.7969 87.2461 38.4414C86.3477 39.0859 85.3418 39.4082 84.2285 39.4082C83.8965 40.3652 83.4863 41.2734 82.998 42.1328C82.5293 42.9727 81.9727 43.7148 81.3281 44.3594C80.6836 45.0039 79.9512 45.5117 79.1309 45.8828C78.3105 46.2539 77.4023 46.4395 76.4062 46.4395C75.8789 46.4395 75.2832 46.3613 74.6191 46.2051C73.9551 46.0488 73.3301 45.7266 72.7441 45.2383C72.1582 44.7305 71.6699 44.0273 71.2793 43.1289C70.8691 42.2109 70.6641 41 70.6641 39.4961C70.6641 38.2656 70.8984 36.9668 71.3672 35.5996C71.8164 34.2324 72.5781 32.875 73.6523 31.5273C74.0625 31.0195 74.4336 30.6582 74.7656 30.4434C75.1172 30.2285 75.4004 30.1211 75.6152 30.1211C76.0449 30.1211 76.2598 30.3848 76.2598 30.9121C76.2598 31.1465 76.1816 31.4395 76.0254 31.791C75.8691 32.1426 75.7031 32.5918 75.5273 33.1387C75.3516 33.6855 75.1855 34.3398 75.0293 35.1016C74.873 35.8438 74.7949 36.7227 74.7949 37.7383C74.7949 39.6914 75.0684 41.2148 75.6152 42.3086C76.1816 43.3828 76.9238 43.9199 77.8418 43.9199ZM81.0938 35.3066C81.0938 33.3145 80.9082 31.8887 80.5371 31.0293C80.166 30.1504 79.7559 29.7988 79.3066 29.9746C79.1113 30.0527 78.9941 30.2285 78.9551 30.502C78.9355 30.7754 78.9258 31.0391 78.9258 31.293C78.9258 31.7227 78.9844 32.1719 79.1016 32.6406C79.2188 33.1094 79.3652 33.5781 79.541 34.0469C79.7363 34.5156 79.9609 34.9648 80.2148 35.3945C80.4883 35.8047 80.7715 36.1855 81.0645 36.5371C81.084 36.3223 81.0938 36.1172 81.0938 35.9219C81.0938 35.7266 81.0938 35.5215 81.0938 35.3066Z" fill="#3CB371"/>
</g>
<defs>
<clipPath id="clip0_1273_3441">
<rect width="163" height="57" fill="white"/>
</clipPath>
</defs>
</svg>
